<svg xmlns="http://www.w3.org/2000/svg" width="135" height="40" viewBox="0 0 135 40"><defs><clipPath id="a"><path data-name="矩形 673" fill="none" d="M0 0h135v40H0z"/></clipPath><clipPath id="b"><path data-name="矩形 663" fill="none" d="M0 0h135v40H0z"/></clipPath><clipPath id="c"><path data-name="路径 1341" d="M10.436 7.538a2 2 0 00-.463 1.4v22.121a2 2 0 00.463 1.4l.073.073L22.9 20.147v-.293L10.509 7.465z" fill="none"/></clipPath><clipPath id="e"><path data-name="路径 1342" d="M22.9 19.854v.293l4.129 4.132.094-.053 4.893-2.78c1.4-.8 1.4-2.095 0-2.889l-4.893-2.78-.093-.053z" fill="none"/></clipPath><clipPath id="g"><path data-name="路径 1343" d="M10.436 32.463a1.626 1.626 0 002.078.062l14.608-8.3L22.9 20z" fill="none"/></clipPath><clipPath id="i"><path data-name="路径 1344" d="M10.436 7.538L22.9 20l4.223-4.224-14.608-8.3a2.3 2.3 0 00-1.121-.337 1.277 1.277 0 00-.957.4" fill="none"/></clipPath><clipPath id="k"><path data-name="矩形 668" transform="translate(10.435 24.132)" fill="none" d="M0 0h16.687v8.729H0z"/></clipPath><clipPath id="l"><path data-name="矩形 669" transform="translate(9.972 30.913)" fill="none" d="M0 0h.537v1.551H0z"/></clipPath><clipPath id="m"><path data-name="矩形 670" transform="translate(27.029 20.001)" fill="none" d="M0 0h6.034v4.223H0z"/></clipPath><clipPath id="n"><path data-name="矩形 671" transform="translate(9.972 7.141)" fill="none" d="M0 0h23.09v12.861H0z"/></clipPath><linearGradient id="d" x1="-.112" y1="1.238" x2="-.075" y2="1.238" gradientUnits="objectBoundingBox"><stop offset="0" stop-color="#00a0ff"/><stop offset=".007" stop-color="#00a1ff"/><stop offset=".26" stop-color="#00beff"/><stop offset=".512" stop-color="#00d2ff"/><stop offset=".76" stop-color="#00dfff"/><stop offset="1" stop-color="#00e3ff"/></linearGradient><linearGradient id="f" x1="-2.178" y1="2.838" x2="-2.083" y2="2.838" gradientUnits="objectBoundingBox"><stop offset="0" stop-color="#ffe000"/><stop offset=".409" stop-color="#ffbd00"/><stop offset=".775" stop-color="orange"/><stop offset="1" stop-color="#ff9c00"/></linearGradient><linearGradient id="h" x1="-.394" y1="1.145" x2="-.347" y2="1.145" gradientUnits="objectBoundingBox"><stop offset="0" stop-color="#ff3a44"/><stop offset="1" stop-color="#c31162"/></linearGradient><linearGradient id="j" x1="-.399" y1="1.77" x2="-.351" y2="1.77" gradientUnits="objectBoundingBox"><stop offset="0" stop-color="#32a071"/><stop offset=".068" stop-color="#2da771"/><stop offset=".476" stop-color="#15cf74"/><stop offset=".801" stop-color="#06e775"/><stop offset="1" stop-color="#00f076"/></linearGradient></defs><g data-name="组 1110" clip-path="url(#a)"><g data-name="组 1087"><g data-name="组 1086" clip-path="url(#b)"><path data-name="路径 1326" d="M130 40H5a5.015 5.015 0 01-5-5V5a5.015 5.015 0 015-5h125a5.015 5.015 0 015 5v30a5.015 5.015 0 01-5 5"/><path data-name="路径 1327" d="M130 .8a4.2 4.2 0 014.2 4.2v30a4.2 4.2 0 01-4.2 4.2H5A4.2 4.2 0 01.8 35V5A4.2 4.2 0 015 .8zm0-.8H5a5.015 5.015 0 00-5 5v30a5.015 5.015 0 005 5h125a5.015 5.015 0 005-5V5a5.015 5.015 0 00-5-5" fill="#a6a6a6"/><path data-name="路径 1328" d="M47.418 10.243a2.709 2.709 0 01-.745 2 2.909 2.909 0 01-2.2.888A3.091 3.091 0 0141.352 10a3.091 3.091 0 013.117-3.135 3.085 3.085 0 011.231.252 2.481 2.481 0 01.939.67l-.528.528a2.027 2.027 0 00-1.642-.715 2.319 2.319 0 00-2.33 2.4 2.359 2.359 0 004.006 1.726 1.881 1.881 0 00.5-1.215h-2.176V9.79h2.907a2.572 2.572 0 01.042.453" fill="#fff"/><path data-name="路径 1329" d="M47.418 10.243a2.709 2.709 0 01-.745 2 2.909 2.909 0 01-2.2.888A3.091 3.091 0 0141.352 10a3.091 3.091 0 013.117-3.135 3.085 3.085 0 011.231.252 2.481 2.481 0 01.939.67l-.528.528a2.027 2.027 0 00-1.642-.715 2.319 2.319 0 00-2.33 2.4 2.359 2.359 0 004.006 1.726 1.881 1.881 0 00.5-1.215h-2.176V9.79h2.907a2.572 2.572 0 01.042.453z" fill="none" stroke="#fff" stroke-miterlimit="10" stroke-width=".2"/><path data-name="路径 1330" d="M52.028 7.737H49.3v1.9h2.46v.721H49.3v1.9h2.732V13h-3.5V7h3.5z" fill="#fff"/><path data-name="路径 1331" d="M52.028 7.737H49.3v1.9h2.46v.721H49.3v1.9h2.732V13h-3.5V7h3.5z" fill="none" stroke="#fff" stroke-miterlimit="10" stroke-width=".2"/><path data-name="路径 1332" d="M55.279 13h-.771V7.737h-1.676V7h4.123v.737h-1.676z" fill="#fff"/><path data-name="路径 1333" d="M55.279 13h-.771V7.737h-1.676V7h4.123v.737h-1.676z" fill="none" stroke="#fff" stroke-miterlimit="10" stroke-width=".2"/><path data-name="矩形 661" fill="#fff" d="M59.938 7h.771v6h-.771z"/><path data-name="矩形 662" fill="none" stroke="#fff" stroke-miterlimit="10" stroke-width=".2" d="M59.938 7h.771v6h-.771z"/><path data-name="路径 1334" d="M64.128 13h-.772V7.737h-1.675V7H65.8v.737h-1.672z" fill="#fff"/><path data-name="路径 1335" d="M64.128 13h-.772V7.737h-1.675V7H65.8v.737h-1.672z" fill="none" stroke="#fff" stroke-miterlimit="10" stroke-width=".2"/><path data-name="路径 1336" d="M73.609 12.224a3.113 3.113 0 01-4.4 0A3.064 3.064 0 0168.326 10a3.068 3.068 0 01.884-2.225 3.106 3.106 0 014.4 0A3.067 3.067 0 0174.493 10a3.068 3.068 0 01-.884 2.224m-3.83-.5a2.308 2.308 0 003.26 0A2.35 2.35 0 0073.706 10a2.348 2.348 0 00-.667-1.722 2.306 2.306 0 00-3.26 0A2.352 2.352 0 0069.113 10a2.353 2.353 0 00.666 1.722" fill="#fff"/><path data-name="路径 1337" d="M73.609 12.224a3.113 3.113 0 01-4.4 0A3.064 3.064 0 0168.326 10a3.068 3.068 0 01.884-2.225 3.106 3.106 0 014.4 0A3.067 3.067 0 0174.493 10a3.068 3.068 0 01-.884 2.224zm-3.83-.5a2.308 2.308 0 003.26 0A2.35 2.35 0 0073.706 10a2.348 2.348 0 00-.667-1.722 2.306 2.306 0 00-3.26 0A2.352 2.352 0 0069.113 10a2.353 2.353 0 00.666 1.722z" fill="none" stroke="#fff" stroke-miterlimit="10" stroke-width=".2"/><path data-name="路径 1338" d="M75.575 13V7h.939l2.916 4.668h.033l-.033-1.157V7h.77v6h-.8l-3.055-4.894h-.033l.033 1.157V13z" fill="#fff"/><path data-name="路径 1339" d="M75.575 13V7h.939l2.916 4.668h.033l-.033-1.157V7h.77v6h-.8l-3.055-4.894h-.033l.033 1.157V13z" fill="none" stroke="#fff" stroke-miterlimit="10" stroke-width=".2"/><path data-name="路径 1340" d="M68.136 21.751A4.254 4.254 0 1072.4 26a4.193 4.193 0 00-4.269-4.254m0 6.831A2.584 2.584 0 1170.536 26a2.46 2.46 0 01-2.4 2.577m-9.314-6.831A4.254 4.254 0 1063.092 26a4.193 4.193 0 00-4.27-4.254m0 6.831A2.584 2.584 0 1161.223 26a2.46 2.46 0 01-2.4 2.577m-11.079-5.52v1.8h4.317a3.765 3.765 0 01-.982 2.271 4.42 4.42 0 01-3.335 1.321 4.8 4.8 0 010-9.6A4.6 4.6 0 0151 20.14l1.273-1.272a6.3 6.3 0 00-4.527-1.821 6.606 6.606 0 100 13.211 6.04 6.04 0 004.607-1.853 5.962 5.962 0 001.563-4.221 5.829 5.829 0 00-.1-1.127zm45.308 1.4a3.953 3.953 0 00-3.641-2.707A4.042 4.042 0 0085.4 26a4.162 4.162 0 004.22 4.253 4.232 4.232 0 003.545-1.885l-1.45-.967a2.43 2.43 0 01-2.095 1.176 2.164 2.164 0 01-2.062-1.288l5.687-2.353zm-5.8 1.418a2.333 2.333 0 012.223-2.475 1.645 1.645 0 011.579.9zM82.628 30H84.5V17.5h-1.872zm-3.061-7.3H79.5a2.948 2.948 0 00-2.239-.951 4.257 4.257 0 000 8.507 2.9 2.9 0 002.239-.967h.064v.611c0 1.628-.869 2.5-2.271 2.5a2.353 2.353 0 01-2.143-1.514l-1.627.677a4.053 4.053 0 003.77 2.513c2.191 0 4.044-1.289 4.044-4.43v-7.637h-1.77zm-2.142 5.88a2.587 2.587 0 010-5.155 2.4 2.4 0 012.275 2.596 2.376 2.376 0 01-2.271 2.561M101.806 17.5h-4.471V30H99.2v-4.736h2.606a3.888 3.888 0 100-7.765m.048 6.025H99.2v-4.286h2.654a2.143 2.143 0 110 4.286m11.532-1.8a3.505 3.505 0 00-3.33 1.913l1.657.692a1.768 1.768 0 011.705-.917 1.8 1.8 0 011.962 1.608v.129a4.131 4.131 0 00-1.946-.482c-1.785 0-3.6.981-3.6 2.814a2.888 2.888 0 003.1 2.75 2.632 2.632 0 002.381-1.222h.064v.965h1.8v-4.788c0-2.219-1.656-3.457-3.795-3.457m-.225 6.851c-.612 0-1.464-.306-1.464-1.062 0-.965 1.061-1.334 1.978-1.334a3.329 3.329 0 011.7.418 2.262 2.262 0 01-2.219 1.978M123.743 22l-2.139 5.42h-.064L119.32 22h-2.01l3.329 7.575-1.9 4.214h1.946L125.818 22zm-16.807 8h1.864V17.5h-1.866z" fill="#fff"/></g></g><g data-name="组 1089"><g data-name="组 1088" clip-path="url(#c)"><path data-name="矩形 664" transform="rotate(-45 22.862 13.094)" fill="url(#d)" d="M0 0h26.868v26.868H0z"/></g></g><g data-name="组 1091"><g data-name="组 1090" clip-path="url(#e)"><path data-name="矩形 665" transform="translate(22.899 15.724)" fill="url(#f)" d="M0 0h10.514v8.555H0z"/></g></g><g data-name="组 1093"><g data-name="组 1092" clip-path="url(#g)"><path data-name="矩形 666" transform="rotate(-45 33.962 8.51)" fill="url(#h)" d="M0 0h20.999v20.999H0z"/></g></g><g data-name="组 1095"><g data-name="组 1094" clip-path="url(#i)"><path data-name="矩形 667" transform="rotate(-45 18.384 1.951)" fill="url(#j)" d="M0 0h20.893v20.893H0z"/></g></g><g data-name="组 1109"><g data-name="组 1108" clip-path="url(#b)"><g data-name="组 1098"><g data-name="组 1097"><g data-name="组 1096" clip-path="url(#k)" opacity=".2"><path data-name="路径 1345" d="M27.029 24.132l-14.515 8.247a1.665 1.665 0 01-2 .011l-.074.074.074.073a1.665 1.665 0 002-.011l14.608-8.3z"/></g></g></g><g data-name="组 1101"><g data-name="组 1100"><g data-name="组 1099" clip-path="url(#l)" opacity=".12"><path data-name="路径 1346" d="M10.435 32.318a2 2 0 01-.463-1.405v.146a2 2 0 00.463 1.405l.074-.074z"/></g></g></g><g data-name="组 1104"><g data-name="组 1103"><g data-name="组 1102" clip-path="url(#m)" opacity=".12"><path data-name="路径 1347" d="M32.015 21.3l-4.986 2.833.093.093 4.893-2.78A1.753 1.753 0 0033.063 20a1.861 1.861 0 01-1.048 1.3"/></g></g></g><g data-name="组 1107"><g data-name="组 1106"><g data-name="组 1105" clip-path="url(#n)" opacity=".25"><path data-name="路径 1348" d="M12.513 7.623l19.5 11.08A1.858 1.858 0 0133.062 20a1.753 1.753 0 00-1.048-1.444l-19.5-11.08c-1.4-.794-2.541-.135-2.541 1.466v.146c0-1.6 1.143-2.26 2.541-1.466" fill="#fff"/></g></g></g></g></g></g></svg>