<svg xmlns="http://www.w3.org/2000/svg" viewBox="0 0 802.98 802.98"><path d="M412.72 296.34c6.9-26.05 13.59-51.31 20.15-76.09-34.81 5.5-69.06 10.9-105.56 16.67 3.61-13.94 6.45-25.09 9.4-36.2 5.56-20.94 11.36-41.82 16.68-62.82 1.47-5.8 3.91-8.25 10.24-8.96 31.97-3.57 63.86-9.36 91.41-26.47 14.17-8.8 27.75-11.35 43.42-10.94 21.43.56 42.88.13 64.32.13h9.88c-3.97 15.23-7.57 29.34-11.35 43.4-13.83 51.54-27.74 103.06-41.57 154.6-1.07 3.99-1.44 7.84-7.28 7.81-31.75-.19-63.51-.11-95.26-.16-1.04 0-2.07-.43-4.49-.96zm-124.61 222.3c5.72-21.54 11.2-42.2 16.7-62.85 2.93-11.01 6.14-21.95 8.78-33.02 1.29-5.41 3.4-8.08 9.54-8.75 25.81-2.8 48.67-12.15 63.43-34.7 5.37-8.2 8.5-18.06 11.53-27.53 3.97-12.38 6.56-25.19 10.38-37.62.77-2.51 4.37-5.89 6.7-5.92 32.04-.36 64.09-.21 96.13-.15.76 0 1.53.42 3.47.99-1.64 6.46-3.11 12.92-4.92 19.27-8.25 28.86-13.07 58.93-28.92 85.18-35.11 58.15-86.08 92.73-153.53 102.36-11.53 1.65-23.22 2.2-34.84 3.2-1.03.09-2.1-.2-4.47-.46zm214.34 63.25c1.96 2.17 4.22 3.69 5.05 5.77 3.67 9.17 11.93 11.54 20.05 14.12 19.09 6.06 38.23 11.99 58.78 18.43-.31 3.04-.75 7.4-1.26 12.41-5.31-.59-9.76-1.09-15.42-1.72 0 7.44.11 14.41-.02 21.38-.33 18.22-10.29 27.98-28.52 28.06-9.77.04-19.53 0-29.63 0 8.69 8.95 23.23 12.06 33.56 7.47 8.9-3.95 17.8-7.89 27.59-12.23 1.95 4.15 3.7 7.88 5.66 12.06l-16.33 7.93c.09.6.17 1.2.26 1.8 3.36.19 6.74.68 10.08.49 5.21-.3 7.12 1.63 7.23 7.01.11 5.82-2.57 6.77-7.42 6.59-25.64-.95-49.5-8.06-72.57-19.96 1.48-3.76 2.73-6.91 4.23-10.71H442.5c-2.11 10.7 1.56 15.41 12.13 15.49 11.09.09 22.17.02 34 .02.18 3.66 1.04 6.78.23 9.37-.65 2.09-3.27 4.97-5.11 5.05-11.11.45-22.28.65-33.38.06-14.01-.74-22.75-10.31-22.91-24.53-.19-18.14-.05-36.29-.05-55.56-5.54.86-10.18 1.57-14.69 2.27-5.58-12.1-5.1-13.04 6.91-16.09 29.26-7.44 57.79-16.7 82.83-35zm-60.27 76.12c-1.52 4.87-1.09 7.72 4.64 7.7 32.27-.09 64.55-.02 96.82-.08 4.96 0 8.75-1.95 10.14-7.62H442.17zm12.87-35.14c10.23 0 18.34.13 26.45-.09 1.89-.05 4.45-.71 5.51-2.04 5.44-6.86 10.34-6.84 15.71.16.9 1.18 3.14 1.83 4.78 1.86 10.46.16 20.91.08 33.47.08-15.88-6.39-29.79-12.03-43.74-17.54-1.11-.44-2.75-.45-3.82.03-12.22 5.5-24.38 11.13-38.36 17.55zm98.88 19.19c.46-.85.92-1.69 1.39-2.54-2.06-.86-4.09-2.37-6.18-2.45-7.58-.3-15.19-.13-22.78-.13-25.77.02-51.54-.03-77.32.15-2.63.02-5.24 1.42-7.86 2.18.27.93.54 1.86.82 2.78h111.94zm-358.12 15.59c0 8.83.32 16.95-.09 25.03-.37 7.34.04 13.39 10.36 11.64v13.37c-3.59.16-7.01.45-10.43.45-49.07.04-98.14.02-147.21.05-12.51 0-12.51.06-10.85-13.53 11.62 1.83 10.26-6.22 10.07-13.71-.19-7.56-.04-15.13-.04-23.3h148.19zm-58.52 13.43h-15.55c-17.29 0-17.69.33-15.44 17.62.25 1.9 2.83 4.88 4.47 4.98 8.8.5 17.63.23 26.52.23v-22.83zm44.41 22.93c0-3.9.02-6.32 0-8.73-.17-15.99 2.28-14.08-14.28-14.18-16.85-.1-16.85-.02-15.7 16.91.04.54-.19 1.3.08 1.59 1.46 1.54 2.98 4.13 4.59 4.21 8.04.43 16.12.2 25.31.2zm-105.54.7l.09-.63c2.43 0 4.87-.19 7.27.04 6.24.58 8.56-1.89 8.3-8.34-.64-15.97 2.69-14.61-14.65-14.68-3.23-.01-6.52-.31-9.68.17-1.77.27-4.72 1.79-4.77 2.87-.32 6.13-1.05 12.66.81 18.24.65 1.96 8.22 1.62 12.63 2.34zm23.53-71.24c-7.46 32.58-24.21 27.93-54.13 26.85v-14.26c8.59 0 16.92-.26 25.23.07 8.12.32 11.91-3.56 12.98-12.67-10.83 0-21.24-.15-31.65.06-5.15.1-8.68-.13-8.7-7.09-.02-6.86 3.25-7.38 8.55-7.19 7.8.28 15.62.07 25.15.07-3.91-5.99-6.91-10.57-10.29-15.75 3.79-2.81 7.16-5.31 11.23-8.33 5.04 6.73 9.36 13.26 14.52 19.04 2.2 2.47 6.07 4.67 9.28 4.8 13 .53 26.06.59 39.05-.06 3.65-.18 7.98-2.62 10.56-5.37 5.11-5.46 9.21-11.85 14.86-19.35 3.58 4.23 8.86 7.73 8.75 11.06-.13 4.09-4.76 8.03-8.75 13.97 9.51 0 17.48.27 25.42-.09 5.79-.26 8.2 1.4 8.22 7.71.02 6.72-3.71 6.6-8.36 6.55-10.25-.11-20.5-.03-31.01-.03-.28 8.47 3.25 12.49 10.97 12.58 7.33.09 14.66.19 21.98-.01 5.9-.16 5.54 3.68 5.52 7.63-.02 3.98.19 7.67-5.69 7.43-7.59-.32-15.2.13-22.79-.16-13.17-.51-22.16-7.79-24.34-20.8-.97-5.82-3.44-6.85-8.52-6.75-12.72.26-25.45.08-38.02.08zm587.46-31.43c18.19 0 36.39.38 54.56-.18 7.47-.23 9.58 2.37 8.95 9.3-.66 7.27 0 14.71-1.14 21.88-2.13 13.44-13.05 23.05-26.49 23.16-31.49.26-62.98-.05-94.47.11-5.17.03-6.51-2.03-6.45-6.74.18-13.57.23-27.15-.04-40.72-.11-5.45 2.09-6.96 7.25-6.9 19.27.22 38.55.09 57.82.09zm-49.93 40.15h14.04c22.52-.05 45.04.1 67.55-.26 11.27-.18 16.2-5.46 17.18-15.38.77-7.8-1.77-10.19-9.76-10.04-26.58.5-53.17.17-79.76.21-3.1 0-6.21.4-9.25.62v24.84zm-298.84 33.2c12.93 0 26.18.07 39.42-.04 5.14-.04 9.53-.45 9.53 7.2 0 7.25-3.69 7.67-9.19 7.59-13.48-.2-26.97-.07-40.94-.07v13.81h54.84v13.7c-2.27.2-4.6.58-6.92.58-37.15.03-74.31-.05-111.46.08-5.27.02-8.63-.4-8.58-7.23.04-7.1 4-6.99 8.95-6.96 15.66.1 31.33.04 47.47.04v-13.88h-48.39c-3.7-13.48-2.81-14.79 9.43-14.82 12.7-.04 25.41 0 38.37 0 1.94-5.75-.96-14.28 10.06-12.9 8.93 1.12 4.02 8.02 7.42 12.89zm-64.19-62.48h46.26q3.88-14.9 15.61-13.35c.35 3.74.73 7.68 1.21 12.83h47.96v14.94h-48.02c-.23 3.64-.26 6.05-.56 8.43-.73 5.75 1.83 7.51 7.42 7.4 15.13-.29 30.27-.1 46.09-.1v14.05H268.78c-2.61-13.49-2.23-13.98 10.46-13.99h30.11q13.69 0 11.89-15.73h-36.76c-12.81.01-13.04-.28-10.28-14.49zm331.95 49.94c2.92-.28 4.78-.6 6.63-.6 22.23-.04 44.46-.02 68.7-.02-.7 14.04.1 27.68-2.45 40.66-2.32 11.77-12.39 17.55-24.35 17.94-14.1.46-28.23.28-42.34-.03-2.08-.04-5.89-2.24-5.91-3.51-.39-18.08-.27-36.17-.27-54.44zm14.7 43.33c12.08 0 23.48.74 34.68-.42 3.67-.38 8.82-5.14 9.79-8.82 1.63-6.2.45-13.13.45-20.04h-44.92v29.28zm70.52-43.92c24.34 0 47.32-.1 70.29.23 1.5.02 4.14 3.27 4.22 5.1.37 9.19.44 18.43-.11 27.61-.89 14.8-10.72 24.93-25.41 25.56-14.33.62-28.72.34-43.06-.04-2.01-.05-5.63-2.9-5.67-4.53-.41-17.56-.26-35.13-.26-53.94zm14.57 14.18v29.88c9.96 0 19.39.03 28.81 0 13.89-.05 22.83-15.13 16.32-27.66-.52-.99-1.99-2.11-3.02-2.12-14-.14-28-.09-42.11-.09zm-444.22-72.66v20.62c0 20.88.17 41.75-.05 62.63-.19 18.16-12.52 31.15-28.85 30.55-1.13-7.02-2.29-13.22 7-16.84 3.4-1.33 6.71-7.65 6.84-11.79.66-22.46.31-44.94.31-68.21-7.67 1.71-14.79 3.31-21.87 4.89-3.09-12.91-2.95-13.5 8.42-16.73 8.79-2.5 16.3-10.83 28.2-5.11z" fill="#2c2c2c"/></svg>